<svg width="220" height="330" viewBox="0 0 220 330" fill="none" xmlns="http://www.w3.org/2000/svg">
<rect width="220" height="330" fill="#3A3A43"/>
<g clip-path="url(#clip0_343_139)">
<path d="M106.875 147.812C106.875 149.885 106.052 151.872 104.587 153.337C103.122 154.802 101.135 155.625 99.0626 155.625C96.9906 155.625 95.0035 154.802 93.5383 153.337C92.0732 151.872 91.2501 149.885 91.2501 147.812C91.2501 145.74 92.0732 143.753 93.5383 142.288C95.0035 140.823 96.9906 140 99.0626 140C101.135 140 103.122 140.823 104.587 142.288C106.052 143.753 106.875 145.74 106.875 147.812ZM120.078 160.478C119.785 160.331 119.453 160.28 119.13 160.333C118.806 160.385 118.507 160.537 118.275 160.769L106.681 175.487L98.3688 166.825C98.0687 166.625 97.7087 166.535 97.3499 166.571C96.9911 166.606 96.6555 166.764 96.4001 167.019L85.0063 180.625V186.875C85.0063 187.704 85.3356 188.499 85.9216 189.085C86.5077 189.671 87.3025 190 88.1313 190H131.881C132.292 190 132.698 189.919 133.077 189.762C133.456 189.605 133.801 189.375 134.091 189.085C134.381 188.795 134.611 188.45 134.768 188.071C134.926 187.692 135.006 187.285 135.006 186.875V172.812L120.078 160.478Z" fill="#EDEAE2"/>
</g>
<defs>
<clipPath id="clip0_343_139">
<rect width="50" height="50" fill="white" transform="translate(85 140)"/>
</clipPath>
</defs>
</svg>
