<svg xmlns="http://www.w3.org/2000/svg" version="1.1" xmlns:xlink="http://www.w3.org/1999/xlink" width="512" height="512"><svg width="512" height="512" viewBox="0 0 512 512" fill="none" xmlns="http://www.w3.org/2000/svg">
<rect width="512" height="512" rx="100" fill="#101018"></rect>
<g clip-path="url(#clip0_339_7)">
<path d="M56 89.75C56 83.4511 58.6339 77.4102 63.3223 72.9562C68.0107 68.5022 74.3696 66 81 66H431C437.63 66 443.989 68.5022 448.678 72.9562C453.366 77.4102 456 83.4511 456 89.75V422.25C456 428.549 453.366 434.59 448.678 439.044C443.989 443.498 437.63 446 431 446H81C74.3696 446 68.0107 443.498 63.3223 439.044C58.6339 434.59 56 428.549 56 422.25V89.75ZM156 89.75V422.25H356V89.75H156ZM81 89.75V137.25H131V89.75H81ZM131 161H81V208.5H131V161ZM81 232.25V279.75H131V232.25H81ZM131 303.5H81V351H131V303.5ZM81 374.75V422.25H131V374.75H81ZM431 89.75H381V137.25H431V89.75ZM381 161V208.5H431V161H381ZM431 232.25H381V279.75H431V232.25ZM381 303.5V351H431V303.5H381ZM431 374.75H381V422.25H431V374.75Z" fill="#EDEAE2"></path>
<path d="M198.492 350.253V176.173H256.092C290.652 176.173 313.18 193.581 313.18 221.229C313.18 238.637 303.452 252.717 284.764 258.861C309.596 264.493 322.652 280.877 322.652 302.125C322.652 332.589 300.38 350.253 264.796 350.253H198.492ZM255.836 190.253H215.644V253.741H255.324C280.412 253.741 295.516 241.197 295.516 222.253C295.516 202.541 280.156 190.253 255.836 190.253ZM260.188 267.565H215.644V336.173H264.54C289.372 336.173 304.988 322.605 304.988 301.869C304.988 280.877 287.58 267.565 260.188 267.565Z" fill="white"></path>
</g>
<defs>
<clipPath id="SvgjsClipPath1026">
<rect width="400" height="380" fill="white" transform="translate(56 66)"></rect>
</clipPath>
</defs>
</svg><style>@media (prefers-color-scheme: light) { :root { filter: contrast(1) brightness(1); } }
@media (prefers-color-scheme: dark) { :root { filter: none; } }
</style></svg>